<svg width="240" height="80" viewBox="0 0 240 80" fill="none" xmlns="http://www.w3.org/2000/svg">
<path d="M66.7562 35.4727H68.7463C69.9901 35.4727 71.2836 35.7214 71.2836 37.1642C71.2836 38.408 70.4876 39.3035 68.1493 39.3035H65.9602L66.7562 35.4727ZM58 49.5523H63.7711L64.9652 43.8309H68.8955C73.8706 43.8309 77.1045 40.5473 77.1045 36.7164C77.1045 32.5373 74.8657 30.597 71.3831 30.597H61.9801L58 49.5523Z" fill="#152C5B"/>
<path d="M84.2189 37.1145L84.9154 42.7861H81.2836L84.2189 37.1145ZM71.7314 49.5523H77.7015L79.1443 46.8657H85.3134L85.612 49.5523H91.3333L88.4478 30.597H82.6766L71.7314 49.5523Z" fill="#152C5B"/>
<path d="M93.7712 42.5871L89.6916 30.597H95.5622L97.3533 37.6617L101.98 30.597H108.846L99.5921 42.5373L98.1493 49.5523H92.3284L93.7712 42.5871Z" fill="#152C5B"/>
<path d="M122.776 42.3383C122.428 44.2786 120.935 50 113.025 50C107.502 50 104.866 46.4179 104.866 41.3433C104.866 35.2239 108.697 30.0995 115.164 30.0995C119.393 30.0995 123.174 31.9403 123.274 37.6119H117.751C117.801 35.8209 116.955 34.8259 115.164 34.8259C111.93 34.8259 110.736 38.5572 110.736 41.2438C110.736 42.8358 111.134 45.2239 113.821 45.2239C115.662 45.2239 116.706 43.9801 117.055 42.2885L122.776 42.3383Z" fill="#152C5B"/>
<path d="M126.159 30.597H132.03L130.637 37.1642H135.96L137.353 30.597H143.224L139.244 49.5523H133.423L134.965 42.0398H129.642L128.05 49.5523H122.229L126.159 30.597Z" fill="#152C5B"/>
<path d="M144.766 30.597H160.438L159.443 35.4727H149.592L149.095 37.811H158.249L157.304 42.3383H148.149L147.652 44.6766H157.702L156.706 49.5523H140.786L144.766 30.597Z" fill="#152C5B"/>
<path d="M164.468 39.5025L160.09 30.597H166.458L168.299 35.5224L172.08 30.597H178.995L171.085 39.5025L175.711 49.5523H169.144L167.055 44.2786L162.627 49.5523H155.463L164.468 39.5025Z" fill="#152C5B"/>
<path d="M179.741 31.4428C179.741 30.7463 180.239 30.199 180.935 30.199C181.582 30.199 182.129 30.7463 182.129 31.4428C182.129 32.1393 181.632 32.6866 180.935 32.6866C180.289 32.6866 179.741 32.1393 179.741 31.4428ZM179.493 31.4428C179.493 32.2886 180.139 32.8856 180.935 32.8856C181.731 32.8856 182.378 32.2886 182.378 31.4428C182.378 30.6468 181.731 30 180.935 30C180.139 30 179.493 30.6468 179.493 31.4428ZM180.388 32.2886H180.637V31.592H180.886L181.333 32.3383H181.632L181.134 31.592C181.383 31.592 181.582 31.4428 181.582 31.1443C181.582 30.796 181.383 30.6468 180.985 30.6468H180.388V32.2886ZM180.637 30.8458H180.985C181.184 30.8458 181.333 30.8955 181.333 31.0945C181.333 31.3433 181.134 31.393 180.886 31.393H180.637V30.8458V30.8458Z" fill="#152C5B"/>
</svg>
