<svg width="240" height="80" viewBox="0 0 240 80" fill="none" xmlns="http://www.w3.org/2000/svg">
<path fill-rule="evenodd" clip-rule="evenodd" d="M181.077 40.4616C181.077 31.7095 176.838 24.8035 168.735 24.8035C160.598 24.8035 155.675 31.7094 155.675 40.3932C155.675 50.6838 161.487 55.8804 169.829 55.8804C173.897 55.8804 176.974 54.9573 179.299 53.6582V46.8206C176.974 47.983 174.308 48.7009 170.923 48.7009C167.607 48.7009 164.667 47.5385 164.291 43.5043H181.009C181.009 43.0599 181.077 41.2821 181.077 40.4616ZM164.188 37.2137C164.188 33.3505 166.547 31.7436 168.701 31.7436C170.786 31.7436 173.009 33.3505 173.009 37.2137H164.188Z" fill="#152C5B"/>
<path fill-rule="evenodd" clip-rule="evenodd" d="M142.479 24.8035C139.128 24.8035 136.974 26.3761 135.778 27.4701L135.333 25.3505H127.812V65.2137L136.359 63.4018L136.393 53.7265C137.624 54.6154 139.436 55.8804 142.444 55.8804C148.564 55.8804 154.137 50.9573 154.137 40.1197C154.103 30.2052 148.462 24.8035 142.479 24.8035ZM140.427 48.359C138.41 48.359 137.214 47.6411 136.393 46.7522L136.359 34.0684C137.248 33.077 138.479 32.3932 140.427 32.3932C143.538 32.3932 145.692 35.8804 145.692 40.359C145.692 44.9402 143.573 48.359 140.427 48.359Z" fill="#152C5B"/>
<path fill-rule="evenodd" clip-rule="evenodd" d="M116.051 22.7863L124.632 20.9402V14L116.051 15.812V22.7863Z" fill="#152C5B"/>
<path d="M124.632 25.3846H116.051V55.2992H124.632V25.3846Z" fill="#152C5B"/>
<path fill-rule="evenodd" clip-rule="evenodd" d="M106.855 27.9145L106.308 25.3846H98.9231V55.2992H107.47V35.0257C109.487 32.3932 112.906 32.8718 113.966 33.2479V25.3846C112.872 24.9744 108.872 24.2222 106.855 27.9145Z" fill="#152C5B"/>
<path fill-rule="evenodd" clip-rule="evenodd" d="M89.7607 17.9658L81.4188 19.7436L81.3846 47.1282C81.3846 52.188 85.1795 55.9145 90.2393 55.9145C93.0427 55.9145 95.094 55.4017 96.2222 54.7863V47.8462C95.1282 48.2906 89.7265 49.8633 89.7265 44.8034V32.6667H96.2222V25.3846H89.7265L89.7607 17.9658Z" fill="#152C5B"/>
<path fill-rule="evenodd" clip-rule="evenodd" d="M66.6496 34.0684C66.6496 32.7351 67.7436 32.2223 69.5556 32.2223C72.1538 32.2223 75.4359 33.0086 78.0342 34.4103V26.3761C75.1966 25.2479 72.3932 24.8035 69.5556 24.8035C62.6154 24.8035 58 28.4274 58 34.4787C58 43.9146 70.9915 42.4103 70.9915 46.4787C70.9915 48.0513 69.6239 48.5642 67.7094 48.5642C64.8718 48.5642 61.2479 47.4018 58.3761 45.8291V53.9659C61.5556 55.3334 64.7692 55.9146 67.7094 55.9146C74.8205 55.9146 79.7094 52.3932 79.7094 46.2736C79.6752 36.0855 66.6496 37.8975 66.6496 34.0684Z" fill="#152C5B"/>
</svg>
