<svg width="240" height="80" viewBox="0 0 240 80" fill="none" xmlns="http://www.w3.org/2000/svg">
<path d="M118.729 21.6584V44.8573H99.5141L118.729 21.6584ZM118.729 13.3334C118.729 15.8815 117.717 18.3252 115.915 20.127C114.114 21.9288 111.67 22.941 109.122 22.941C106.574 22.941 104.13 21.9288 102.328 20.127C100.526 18.3252 99.5141 15.8815 99.5141 13.3334L118.729 13.3334ZM121.895 44.8594C121.895 42.3113 122.907 39.8675 124.709 38.0657C126.511 36.264 128.955 35.2517 131.503 35.2517C134.051 35.2517 136.494 36.264 138.296 38.0657C140.098 39.8675 141.11 42.3113 141.11 44.8594H121.895ZM121.895 36.5344V13.3334H141.114L121.895 36.5323V36.5344ZM132.641 64.7078C133.63 64.7299 134.586 64.3604 135.303 63.68L136.623 65.1045C135.751 66.0007 134.543 66.6667 132.664 66.6667C129.443 66.6667 127.361 64.5289 127.361 61.6388C127.348 60.9765 127.468 60.3182 127.715 59.7034C127.962 59.0886 128.33 58.5298 128.798 58.0604C129.265 57.591 129.822 57.2205 130.436 56.9711C131.05 56.7218 131.708 56.5986 132.37 56.6089C135.569 56.6089 137.382 59.0427 137.221 62.4179H129.661C129.928 63.8198 130.915 64.7139 132.635 64.7139L132.641 64.7078ZM134.937 60.8084C134.732 59.499 133.951 58.535 132.389 58.535C130.935 58.535 129.922 59.3572 129.661 60.8084H134.94H134.937ZM82.9998 64.5988L88.8171 58.6871H83.1376V56.833H91.516V58.7241L85.6988 64.6338H91.5982V66.4899H82.9998V64.5988ZM98.1287 64.7057C99.1169 64.7278 100.074 64.3584 100.791 63.6779L102.11 65.1024C101.239 65.9987 100.03 66.6647 98.1513 66.6647C94.9303 66.6647 92.848 64.5269 92.848 61.6368C92.8349 60.9744 92.9554 60.3162 93.2023 59.7014C93.4492 59.0866 93.8173 58.5278 94.2848 58.0583C94.7523 57.5889 95.3096 57.2185 95.9234 56.9691C96.5372 56.7197 97.1949 56.5965 97.8574 56.6069C101.056 56.6069 102.869 59.0406 102.708 62.4158H95.1523C95.4195 63.8177 96.4062 64.7119 98.1266 64.7119L98.1287 64.7057ZM100.429 60.8063C100.223 59.497 99.4422 58.5329 97.88 58.5329C96.4267 58.5329 95.4133 59.3551 95.1523 60.8063H100.431H100.429ZM115.276 61.6347C115.276 58.5514 117.584 56.611 120.127 56.611C120.737 56.6028 121.342 56.7284 121.898 56.9787C122.455 57.2291 122.95 57.5982 123.348 58.0601V52.3621H125.404V66.4632H123.348V65.1333C122.957 65.6142 122.463 66.001 121.902 66.2651C121.342 66.5291 120.729 66.6636 120.109 66.6585C117.642 66.6585 115.278 64.7057 115.278 61.6368L115.276 61.6347ZM123.463 61.6162C123.447 61.0133 123.254 60.4286 122.907 59.9351C122.56 59.4417 122.076 59.0614 121.514 58.8419C120.952 58.6224 120.338 58.5734 119.749 58.701C119.159 58.8287 118.62 59.1272 118.2 59.5595C117.779 59.9917 117.495 60.5383 117.384 61.131C117.272 61.7237 117.338 62.3361 117.572 62.8917C117.807 63.4473 118.2 63.9214 118.703 64.2546C119.206 64.5879 119.795 64.7655 120.399 64.7653C122.166 64.7653 123.461 63.3552 123.461 61.6162H123.463ZM138.566 64.4118L140.428 63.4457C140.674 63.8846 141.035 64.2479 141.473 64.4964C141.911 64.7449 142.408 64.8692 142.911 64.8558C144.074 64.8558 144.679 64.2597 144.679 63.5813C144.679 62.8085 143.554 62.6358 142.331 62.383C140.687 62.0335 138.975 61.4929 138.975 59.5052C138.975 57.9779 140.428 56.5657 142.716 56.5863C144.518 56.5863 145.861 57.3016 146.621 58.4568L144.895 59.4024C144.656 59.0491 144.331 58.7625 143.951 58.5697C143.571 58.3769 143.148 58.2843 142.722 58.3006C141.616 58.3006 141.053 58.8412 141.053 59.46C141.053 60.1547 141.945 60.348 143.343 60.6583C144.934 61.0078 146.734 61.5278 146.734 63.5361C146.734 64.8681 145.571 66.6647 142.816 66.6462C140.802 66.6462 139.384 65.8342 138.568 64.4056L138.566 64.4118ZM152.319 62.1712L150.689 63.9493V66.4571H148.634V52.356H150.689V61.5916L155.053 56.8021H157.557L153.775 60.9338L157.655 66.4591H155.329L152.321 62.1712H152.319ZM109.064 56.6089C106.618 56.6089 104.573 58.1917 104.573 60.8228V66.4653H106.67V61.0838C106.67 59.5011 107.58 58.5514 109.136 58.5514C110.692 58.5514 111.465 59.497 111.465 61.0838V66.4653H113.549V60.8228C113.549 58.1958 111.494 56.6089 109.058 56.6089" fill="#152C5B"/>
</svg>
